<?xml version="1.0" encoding="UTF-8"?>
<svg width="20px" height="20px" viewBox="0 0 20 20" version="1.1" xmlns="http://www.w3.org/2000/svg" xmlns:xlink="http://www.w3.org/1999/xlink">
    <title>like-before</title>
    <g id="标注" stroke="none" stroke-width="1" fill="none" fill-rule="evenodd">
        <g id="切图" transform="translate(-27.000000, -59.000000)">
            <g id="like-before" transform="translate(27.000000, 59.000000)">
                <polygon id="路径" points="0 0 20 0 20 20 0 20"></polygon>
                <path d="M9.724,3.709 L10,3.9835 L10.277,3.7085 C12.413,1.584 15.877,1.584 18.013,3.7085 C18.6488023,4.33926833 19.1183072,5.11782524 19.3795,5.9745 C19.4255,6.0775 19.452,6.1915 19.452,6.3115 C19.4517988,6.71655713 19.1488819,7.05754735 18.7466709,7.10548121 C18.3444599,7.15341507 17.9698897,6.893165 17.8745,6.4995 L17.883,6.5195 C17.686,5.9635 17.34,5.4245 16.844,4.9275 L16.844,4.928 C16.296,4.379 15.697,4.013 15.081,3.8295 C14.4726357,3.64646422 13.8238643,3.64646422 13.2155,3.8295 C12.6405,4.0005 12.08,4.331 11.5625,4.8205 L11.4525,4.928 L10.2725,6.11 C10.2002974,6.18221 10.1023652,6.22277778 10.00025,6.22277778 C9.89813484,6.22277778 9.80020263,6.18221 9.728,6.11 L8.548,4.928 C8.0005,4.379 7.401,4.013 6.785,3.8295 C6.17679561,3.64653499 5.52820439,3.64653499 4.92,3.8295 C4.3035,4.0125 3.704,4.379 3.156,4.928 C2.608,5.4775 2.2425,6.078 2.06,6.6955 C1.87743924,7.30512583 1.87743924,7.95487417 2.06,8.5645 C2.231,9.1415 2.56,9.703 3.049,10.2215 L3.156,10.3315 L8.582,15.77 L8.6575,15.845 C9.099,16.2775 9.319,16.3965 9.5815,16.476 C9.8540083,16.5599912 10.1454917,16.5599912 10.418,16.476 L10.504,16.4475 C10.689,16.3815 10.8675,16.2785 11.1385,16.0365 L11.2705,15.9145 L11.4175,15.77 L12.853,14.332 C13.0014528,14.0797842 13.2757802,13.9287611 13.5682894,13.9382179 C13.8607985,13.9476746 14.1247982,14.1161017 14.2566499,14.3773796 C14.3885016,14.6386576 14.3671588,14.9510803 14.201,15.192 C14.146,15.2695 14.08,15.3355 14.004,15.3885 L12.7335,16.6515 L12.5435,16.834 C12.4835,16.8915 12.4245,16.9465 12.3675,16.998 L12.203,17.144 C11.8325,17.466 11.549,17.654 11.2845,17.7815 L11.172,17.832 L11.0605,17.877 L10.949,17.917 L10.8355,17.952 C10.290801,18.1186918 9.70869905,18.1186918 9.164,17.952 L9.051,17.917 L8.939,17.877 L8.8275,17.832 L8.7145,17.7815 C8.45,17.6545 8.167,17.466 7.7965,17.1445 L7.6315,16.998 L7.4555,16.834 L7.266,16.6515 L1.987,11.4025 C0.9614466,10.3851167 0.38460491,9.00033597 0.38460491,7.55575 C0.38460491,6.11116403 0.9614466,4.72638334 1.987,3.709 C4.1235,1.584 7.587,1.584 9.724,3.709 Z" id="路径" fill="#000000" fill-rule="nonzero"></path>
            </g>
        </g>
    </g>
</svg>